<?xml version="1.0" standalone="no"?>
<!DOCTYPE svg PUBLIC "-//W3C//DTD SVG 20010904//EN"
 "http://www.w3.org/TR/2001/REC-SVG-20010904/DTD/svg10.dtd">
<svg version="1.0" xmlns="http://www.w3.org/2000/svg"
 width="558.000000pt" height="247.000000pt" viewBox="0 0 558.000000 247.000000"
 preserveAspectRatio="xMidYMid meet">

<g transform="translate(0.000000,247.000000) scale(0.100000,-0.100000)"
fill="#000000" stroke="none">
<path d="M2235 2211 c-359 -154 -637 -334 -868 -560 -66 -64 -142 -144 -170
-178 -28 -35 -55 -63 -61 -63 -6 0 -42 31 -81 69 -38 39 -95 82 -125 98 -48
24 -66 28 -145 28 -78 0 -98 -4 -152 -29 -122 -56 -138 -26 203 -367 l300
-300 29 43 c43 65 181 249 285 378 269 337 596 672 875 897 22 18 36 32 30 32
-5 0 -59 -22 -120 -48z"/>
<path d="M1408 1188 c-126 -168 -228 -310 -228 -318 0 -3 60 -65 133 -136 83
-82 149 -138 178 -151 124 -58 254 -44 373 40 l28 20 -231 231 c-127 127 -231
236 -231 243 0 6 16 49 35 94 19 45 33 84 31 86 -2 2 -42 -47 -88 -109z"/>
<path d="M721 1230 c9 -14 32 -53 52 -86 20 -34 37 -69 37 -77 0 -9 -43 -79
-96 -157 -53 -77 -105 -167 -116 -198 -27 -78 -21 -179 15 -254 29 -59 92
-138 110 -138 11 0 360 500 372 533 3 6 -83 100 -192 207 -108 107 -190 184
-182 170z"/>
<path d="M2345 1124 c-113 -29 -158 -63 -196 -148 -31 -70 -30 -201 1 -274 26
-61 84 -116 137 -132 73 -21 164 -23 232 -6 97 25 146 69 165 149 l6 27 -65 0
c-47 0 -65 -4 -65 -13 0 -45 -99 -83 -185 -71 -98 13 -139 94 -120 241 10 79
49 118 127 128 81 10 149 -11 168 -52 15 -32 17 -33 77 -33 l62 0 -11 33 c-31
92 -116 146 -241 152 -39 2 -81 2 -92 -1z"/>
<path d="M3913 1120 c-80 -17 -121 -48 -142 -109 -16 -48 -13 -90 8 -138 29
-62 62 -75 207 -82 136 -7 154 -15 154 -67 0 -43 -20 -61 -76 -70 -98 -14
-174 13 -174 63 0 22 -3 23 -66 23 l-66 0 7 -32 c12 -56 34 -92 69 -116 72
-49 259 -53 348 -9 60 31 80 73 76 159 -3 57 -8 72 -31 96 -38 39 -87 52 -201
52 -122 0 -136 7 -136 64 0 53 11 63 77 72 95 12 153 -11 153 -62 0 -23 3 -24
66 -24 l67 0 -7 32 c-20 102 -84 147 -213 153 -43 2 -97 0 -120 -5z"/>
<path d="M2850 840 l0 -280 230 0 230 0 0 50 0 50 -165 0 -165 0 0 65 0 65
120 0 120 0 0 50 0 50 -120 0 -120 0 0 65 0 65 165 0 165 0 0 50 0 50 -230 0
-230 0 0 -280z"/>
<path d="M3470 840 l0 -280 65 0 65 0 0 280 0 280 -65 0 -65 0 0 -280z"/>
<path d="M4647 1113 c-7 -11 -207 -541 -207 -548 0 -3 26 -5 58 -5 l59 0 19
55 18 56 120 -3 119 -3 20 -52 20 -53 58 0 c33 0 59 1 59 3 0 2 -47 127 -104
278 l-104 274 -65 3 c-36 2 -68 -1 -70 -5z m106 -235 c40 -107 40 -108 -43
-108 -38 0 -70 4 -70 9 0 23 64 171 74 171 6 0 24 -33 39 -72z"/>
</g>
</svg>
